<svg width="764" height="549" viewBox="0 0 764 549" fill="none" xmlns="http://www.w3.org/2000/svg">
<rect width="764" height="549" fill="#B9B9B9"/>
<g id="tj_map_v2" clip-path="url(#clip0_58_328)">
<g id="halton-group">
<path id="halton-region" d="M119.84 400.56L119.92 400.64L122.4 402.56L123.36 403.68L124.72 404.8L127.04 405.04L134.16 403.92L135.84 403.44L136.24 403.76L136.64 404.16L136.88 404.72L137.2 405.12L137.68 405.28H138.24L140 404.8L140.64 404.4L141.12 403.68L142.64 398.24L143.52 395.84L144.8 394.08L147.68 392.72L148.16 392.32L148.4 391.52L148.64 389.28V386.56L149.04 384.4L148.88 383.84L148.4 383.44L146.96 383.04L146.4 382.72L146.08 382.32V381.68L146.24 381.04L147.68 378L151.68 371.52L151.92 370.8L152.16 370.08L152.32 368.64L152.4 367.2L152.24 365.28L152.08 364.08L150.88 360.08L150.8 359.44L151.04 358.8L151.36 358.16L152.8 356.4L154.48 354.88L155.2 354.64H156.08L159.44 355.68L162.64 356.24H163.36L164.24 356.08L165.52 355.44L166.24 354.96L166.72 354.4L167.76 352.8L168.24 352.4L168.8 352.16L169.52 352L170.4 351.92L171.28 352.16L171.84 352.48L173.36 354.88L174.32 355.04L177.84 354.16L178.48 353.92L179.12 353.44L179.84 352.48L180.32 351.76L181.52 349.2L181.84 348.72L182.24 348.24L184.16 347.2L190.4 344.88L203.12 344.08L207.44 342.08L207.84 342H208.4L209.12 342.16L209.84 342.4L210.56 342.96L211.04 343.44L211.44 343.92L212.08 344.8L212.32 345.44L212.4 345.76L212.72 347.92L220.32 348.24L221.2 348.64L222.16 349.2V349.84L222 350.4L221.68 350.88L220.72 351.76L220.4 352.32L220.24 353.12L220.72 354.4L221.28 354.96L222.16 355.36L223.2 355.28L224.88 355.44L225.84 355.2L226.48 354.88L227.52 354.08L228.72 352.64L230.56 350.96L232.24 349.12L232.8 348.08L233.2 347.6L233.68 347.2L234.08 346.72L234.96 345.2L235.44 344.8L237.2 343.76L237.52 343.44L238.32 342.64L238.64 342.16L240.88 340.64L243.36 339.12L247.52 335.2L248.4 333.76L256.88 321.04L257.44 320.56L258.08 320.32L259.36 320.48L260 320.64L260.56 320.88L260.96 321.28L261.6 322.24L261.92 322.72L262.24 323.2L262.8 323.52L263.6 323.6L265.28 323.12L266.16 322.64L266.72 322.08L270.16 315.84L275.76 309.92L276.64 309.2L277.12 308.88L281.52 307.2L282.96 306.48L284.24 306.4L285.92 306.88L287.28 307.68L288.08 308.48L288.8 309.44L292.08 312.64L293.28 314.32L295.36 316.56L297.76 317.92L299.2 318.72L299.84 320.48L299.76 322.08L299.2 324.72L298.88 327.6L299.12 328.64L299.52 328.96L299.92 328.56L302.56 325.36L305.12 322.88L305.6 322.56L306.32 322.24L307.28 322.08L311.6 322.24L317.12 321.68L317.76 321.92L318.24 322.32L318.48 322.72L318.96 323.28L322.8 326.16L323.2 326.64L323.52 327.12L323.76 327.6L324.16 328.72L324.64 330.72L325.12 332.56L324.8 334.24L323.76 335.84L317.36 341.28L316.08 344.16L315.76 346.8V348.16L316 349.04L316.64 350L316.96 350.8L317.36 351.84L317.68 353.84V354.96L317.44 355.92L316.4 358.64L315.68 361.52L315.6 362.56V363.36L315.84 365.28L316.08 368.72L316 375.28L315.84 376.72L314.64 380.16L310.72 387.12L309.76 389.6L309.84 390.96L310.48 391.92L312 394H312.08L311.6 394.24L311.12 394.88L310.64 395.92L309.6 396.4L308.56 396.56L307.92 396.96L307.6 398L307.52 399.04L307.84 400L308.56 400.96L306.4 401.76L304.24 402.16L302.16 401.76L300.24 400.16L299.2 403.2L299.6 406.8L300.88 410.24L302.48 412.72L303.52 413.2L306.64 414.16L307.28 415.2L307.52 416.88L308.16 418.4L308.96 419.68L309.84 420.48L309.36 421.84L309.52 423.52L310.48 426.88L310.64 428.64L310.4 429.68L310.08 430.64L309.84 432.08L308.72 433.84L308.24 434.16L307.84 434.56L307.92 435.52L308 436.56L307.92 437.36L307.36 438.24L307.12 438.48L306.64 438.96L306.4 438.88L304.56 438.96H304.4L303.04 442.4L302.8 443.44L302.16 443.84L298.96 447.92L296.24 448.96L293.44 448.48L290.64 447.44L288.08 447.04L288.72 447.92L285.76 447.36L284.88 447.04L284.56 446.72L284.08 446.24L283.68 445.44L283.2 444.88L282 444.64L280.08 443.92L279.04 442.24L278.16 440.32L276.64 438.96L274.4 438.88L270.56 440.88L268.64 441.36L267.68 441.84L266.72 442.64L265.76 443.2L264.8 442.64L264.08 442.16L262 441.52L261.28 441.36L258.96 441.68L255.04 443.44L252.96 443.84L240.24 442.64L238.4 443.44L236.8 448.4L234.72 450.4L230.64 453.44L230.24 454L229.68 455.44L229.36 456L228.64 456.64L227.28 457.6L226.8 458.24L226.24 460.16L226 462.32L226.08 466.8L226.32 467.2L227.12 467.44L227.44 467.92L227.36 468.56L227.2 468.8L226.96 468.88L226.8 469.2V470.24L226.96 471.36L227.28 472.4L227.76 473.2L228.56 474.96L229.12 478.96L229.92 480L229.2 482.64L230.72 483.36L232.48 483.68L232.16 485.2L228.96 490.64L227.44 492.08L223.68 494.48L222.16 496.24L221.12 497.2L220.08 497.6L219.76 497.68L217.6 498.16L215.76 499.04L213.84 499.2L205.04 493.2L204.56 493.04L202.48 491.6L201.6 490.64L199.92 486.48L198.24 485.04L196.16 483.6L194.24 481.92L192.88 477.68L191.44 475.6L189.52 473.84L187.68 472.8L181.36 472L181.04 471.92L180.48 471.76L180.24 472.16L180.72 473.52L181.28 474.32L182.8 475.44L183.28 476L183.6 477.68L183.12 478.72L182.08 478.96L180.72 478.4L179.44 476.72L178.64 474.8L177.6 473.36L175.6 472.8L173.6 473.52L173.2 474.8L174.32 478.4L174.56 480.88L174.16 482L173.04 481.92L169.6 479.68L168.48 479.12L167.28 479.04L165.36 479.2L161.76 478.72L160.08 478.8L158.96 480L159.44 480.48L159.76 481.04L160.24 482.4L158.16 482.8L157.04 484.48L156.48 486.32L156.16 487.2L154.48 487.52L150.96 488.56L149.12 488.8L148.64 489.36L147.36 491.6L146.56 492.08L145.52 492.16L141.12 493.2L135.36 493.6L136.64 496.4L136.08 498.08L134.24 499.04L131.76 499.28L129.92 498.88L128.16 498.16L126.32 498L124.56 499.28L123.84 501.2L123.92 503.6L124.56 508.48L123.6 510.16H121.36L117.52 508.88L115.04 509.2L113.36 510.64L111.84 512.16L110.08 512.96L108.96 513.68L102.8 518.96L101.84 519.6L100.72 520.08H100L99.52 520L98.72 519.44L98.24 518.48L97.84 517.52L97.28 516.48L94.08 512.56L93.28 511.76L91.04 510.64L90.08 509.76L88.56 507.36L87.6 505.28L86.32 503.84L82.08 502.8L79.76 501.6L77.68 500.08L76.48 498.48L76.4 496.72L77.2 489.28L77.6 487.52L79.36 484.08L80.48 480.08L80.96 475.84L80.64 470.96L78.8 461.68L79.12 456.72L81.76 449.52L85.68 442.56L90.56 436.4L95.52 431.6L102.32 422.08L105.12 416.72L109.04 404.64L110.72 402.96L113.6 401.92L118 401.36L119.44 400.88L119.84 400.56Z" fill="#2273FC" stroke="white" stroke-width="1.5" stroke-linejoin="round"/>
<path id="kulob" opacity="0.8" d="M264.874 413.682C270.397 413.682 274.874 409.205 274.874 403.682C274.874 398.159 270.397 393.682 264.874 393.682C259.351 393.682 254.874 398.159 254.874 403.682C254.874 409.205 259.351 413.682 264.874 413.682Z" fill="#FF0067" stroke="white" stroke-width="1.6"/>
<path id="bohtar" opacity="0.8" d="M170.361 422.902C175.884 422.902 180.361 418.425 180.361 412.902C180.361 407.379 175.884 402.902 170.361 402.902C164.838 402.902 160.361 407.379 160.361 412.902C160.361 418.425 164.838 422.902 170.361 422.902Z" fill="#FF0067" stroke="white" stroke-width="1.6"/>
<path id="dangara" opacity="0.8" d="M222.344 392.192C227.867 392.192 232.344 387.715 232.344 382.192C232.344 376.669 227.867 372.192 222.344 372.192C216.821 372.192 212.344 376.669 212.344 382.192C212.344 387.715 216.821 392.192 222.344 392.192Z" fill="#FF0067" stroke="white" stroke-width="1.6"/>
<path id="levakant" opacity="0.8" d="M183.724 418.721C189.247 418.721 193.724 414.244 193.724 408.721C193.724 403.199 189.247 398.721 183.724 398.721C178.201 398.721 173.724 403.199 173.724 408.721C173.724 414.244 178.201 418.721 183.724 418.721Z" fill="#FF0067" stroke="white" stroke-width="1.6"/>
<path id="kubodiyon-district" opacity="0.8" d="M123.414 468.778C128.937 468.778 133.414 464.301 133.414 458.778C133.414 453.256 128.937 448.778 123.414 448.778C117.891 448.778 113.414 453.256 113.414 458.778C113.414 464.301 117.891 468.778 123.414 468.778Z" fill="#141DC2" stroke="white" stroke-width="1.6"/>
<path id="yovon-district" opacity="0.8" d="M188.697 381.051C194.22 381.051 198.697 376.574 198.697 371.051C198.697 365.528 194.22 361.051 188.697 361.051C183.174 361.051 178.697 365.528 178.697 371.051C178.697 376.574 183.174 381.051 188.697 381.051Z" fill="#141DC2" stroke="white" stroke-width="1.6"/>
<path id="j-balhi-district" opacity="0.8" d="M174.217 460.394C179.74 460.394 184.217 455.916 184.217 450.394C184.217 444.871 179.74 440.394 174.217 440.394C168.694 440.394 164.217 444.871 164.217 450.394C164.217 455.916 168.694 460.394 174.217 460.394Z" fill="#141DC2" stroke="white" stroke-width="1.6"/>
<path id="vaksh-district" opacity="0.8" d="M175.095 437.604C180.617 437.604 185.095 433.127 185.095 427.604C185.095 422.081 180.617 417.604 175.095 417.604C169.572 417.604 165.095 422.081 165.095 427.604C165.095 433.127 169.572 437.604 175.095 437.604Z" fill="#141DC2" stroke="white" stroke-width="1.6"/>
<path id="mir_said_ali_khamadoni-district" opacity="0.8" d="M252.364 444.191C257.887 444.191 262.364 439.714 262.364 434.191C262.364 428.668 257.887 424.191 252.364 424.191C246.841 424.191 242.364 428.668 242.364 434.191C242.364 439.714 246.841 444.191 252.364 444.191Z" fill="#141DC2" stroke="white" stroke-width="1.6"/>
<path id="pandzh-district" opacity="0.8" d="M207.547 487.479C213.07 487.479 217.547 483.002 217.547 477.479C217.547 471.956 213.07 467.479 207.547 467.479C202.025 467.479 197.547 471.956 197.547 477.479C197.547 483.002 202.025 487.479 207.547 487.479Z" fill="#141DC2" stroke="white" stroke-width="1.6"/>
<path id="chaihun-district" opacity="0.8" d="M165.979 481.586C171.502 481.586 175.979 477.109 175.979 471.586C175.979 466.063 171.502 461.586 165.979 461.586C160.456 461.586 155.979 466.063 155.979 471.586C155.979 477.109 160.456 481.586 165.979 481.586Z" fill="#141DC2" stroke="white" stroke-width="1.6"/>
<path id="vose-district" opacity="0.8" d="M250.22 414.31C255.743 414.31 260.22 409.833 260.22 404.31C260.22 398.787 255.743 394.31 250.22 394.31C244.697 394.31 240.22 398.787 240.22 404.31C240.22 409.833 244.697 414.31 250.22 414.31Z" fill="#141DC2" stroke="white" stroke-width="1.6"/>
<path id="farkhor-district" opacity="0.8" d="M220.937 453.87C226.46 453.87 230.937 449.393 230.937 443.87C230.937 438.347 226.46 433.87 220.937 433.87C215.414 433.87 210.937 438.347 210.937 443.87C210.937 449.393 215.414 453.87 220.937 453.87Z" fill="#141DC2" stroke="white" stroke-width="1.6"/>
<path id="khovaling-district" opacity="0.8" d="M239.866 387.917C245.389 387.917 249.866 383.44 249.866 377.917C249.866 372.394 245.389 367.917 239.866 367.917C234.343 367.917 229.866 372.394 229.866 377.917C229.866 383.44 234.343 387.917 239.866 387.917Z" fill="#141DC2" stroke="white" stroke-width="1.6"/>
<path id="shahrtuz-district" opacity="0.8" d="M101.635 458.981C107.158 458.981 111.635 454.503 111.635 448.981C111.635 443.458 107.158 438.981 101.635 438.981C96.112 438.981 91.6348 443.458 91.6348 448.981C91.6348 454.503 96.112 458.981 101.635 458.981Z" fill="#141DC2" stroke="white" stroke-width="1.6"/>
<path id="muminobod-district" opacity="0.8" d="M286.784 390.871C292.307 390.871 296.784 386.394 296.784 380.871C296.784 375.349 292.307 370.871 286.784 370.871C281.261 370.871 276.784 375.349 276.784 380.871C276.784 386.394 281.261 390.871 286.784 390.871Z" fill="#141DC2" stroke="white" stroke-width="1.6"/>
<path id="abdurahmoni_jomi-district" opacity="0.8" d="M179.082 405.868C184.605 405.868 189.082 401.391 189.082 395.868C189.082 390.345 184.605 385.868 179.082 385.868C173.559 385.868 169.082 390.345 169.082 395.868C169.082 401.391 173.559 405.868 179.082 405.868Z" fill="#141DC2" stroke="white" stroke-width="1.6"/>
<path id="dusti-district" opacity="0.8" d="M147.502 468.994C153.025 468.994 157.502 464.517 157.502 458.994C157.502 453.471 153.025 448.994 147.502 448.994C141.979 448.994 137.502 453.471 137.502 458.994C137.502 464.517 141.979 468.994 147.502 468.994Z" fill="#141DC2" stroke="white" stroke-width="1.6"/>
</g>
<g id="republic-group">
<path id="republic-region" d="M112 286.64L114.48 286L119.12 285.92L120.8 285.44L126 283.28L127.52 282.96L128.72 282.88L129.36 283.12L131.2 284L132 284.24L132.56 284.16L133.44 283.84L134.08 283.52L137.44 282.16L140.08 282.32L141.92 281.84L145.2 280.48L146.24 279.36L147.6 276.72L150.56 274.64V274.56L150.72 274.08L151.52 270.8L152.08 269.36L152.72 268.88L153.44 268.64L159.76 268.96L168.64 265.52L169.92 265.36L170.4 265.68L170.64 266.16L170.88 266.72L171.6 267.12L172.64 267.36L178.32 266.96L183.6 267.44L189.44 268.96L190 269.28L191.44 269.6L191.76 269.84L194.08 270.32L197.04 270.96L199.92 269.68L200.56 269.12L200.96 268.64L202.16 267.68L208.96 263.92L211.12 262.96L212.72 262.48L221.76 262.8L223.28 262.72L224 262.24L224.32 261.6L224.56 257.2L224.64 256.48L224.96 255.52L225.52 254.64L226.8 253.52L227.68 253.12L228.48 252.96L229.28 253.04L236.24 252.08H237.28L237.6 252.32L240.88 255.36L241.6 256.32L242 257.36L242.24 258.64L242.32 260L242.24 261.44L241.68 263.6L241.6 264.32L241.68 264.96L242 265.44L242.56 265.92H243.04L243.52 265.68L243.92 265.28L244.72 264.32L245.6 263.68L246.96 263.04L250.16 262.08L251.28 261.44L251.68 260.8L251.52 260.24L251.44 259.6L251.36 259.12L251.44 258.24L253.52 256.4L253.92 255.84L254.48 255.04L254.8 254.16L255.2 252.8L255.68 247.84L255.44 246.88L255.2 246.24L254 244.96L253.44 244.32L253.12 243.12L259.6 239.36L260.48 239.2L261.52 239.12L262.24 240.72L262.88 241.68L263.44 242.16L264.16 242.56L265.52 242.96L266.32 242.88L266.96 242.72L268 242.24L268.96 241.6L269.84 240.8L270.88 239.28L271.84 237.52L272.32 236.88L273.12 236.24L273.84 236L283.28 234.72L284.24 234.8L284.56 235.76L284.88 236.4L285.68 236.96H286.24L286.8 236.72L287.12 236.24L287.92 235.52L289.04 234.72L291.6 233.76L293.04 233.52H294.08L294.56 233.92L294.88 234.4L294.96 235.04L295.04 236.48L295.12 237.12L295.36 237.76H295.84L296.24 237.52L298.08 236.08L308 231.28L308.48 230.88L308.8 230.4L309.44 228.88L310.16 228L310.88 227.6L311.52 227.52L312.16 227.6L312.64 227.92L313.44 228.8L313.92 229.12L314.8 229.36L318.56 229.2L328.32 226.32L329.44 226.24L330 225.76L330.4 225.28L331.04 223.76L331.28 223.28L331.76 223.04L336.88 222.32L338.16 221.92L338.96 221.44L339.28 220.88L339.76 219.52L340.08 218.96L340.48 218.48L342 217.6L345.36 215.04V215.12L346.4 216L348.56 216.88L349.44 217.76L350 219.44L349.76 221.04L349.36 222.64L349.28 224.16L350.72 226.64L353.2 228.16L356 228.64L358.56 228.24L360.08 227.36L361.44 226.64L362.56 226.32L364 226.24L364.32 226.32L364.8 226.4L365.52 226.08L366.72 224.8L366.8 224.72L368.48 223.92L370.48 224.88L371.36 225.44L372.8 226.4L375.36 227.12L378.32 225.52L378.64 224.96L380.08 222.24L381.44 218.24L383.36 214.88L386.4 212.88H386.64L389.2 212.16L390.32 211.84L394.24 211.6L397.04 212.16L399.6 212.64H400.72L401.76 211.92L402.88 210.56L404.72 208.48L406 207.44L408.96 205.92L409.2 205.68L409.52 205.52L409.92 205.2L411.2 203.76L411.84 203.36L412.72 202.96L415.44 202.48L418.64 201.04L420.32 200.8L421.6 201.6L423.44 202.72L425.04 204.08L425.12 204.24L426.48 206L427.04 208L426.56 209.76L424.16 213.28L423.36 215.12L425.28 219.36L429.2 221.12L433.68 221.36L436.24 220.8L436.4 220.88L436.64 220.8L436.88 220.72H437.04H437.28H437.52L437.76 220.64H438H438.24L438.32 220.56L438.64 220.48L438.8 220.4L439.28 220.32H439.68H440L440.32 220.24L440.64 220.32H440.8L441.12 220.24L441.44 220.08L441.6 219.92L441.84 219.68V219.6H442L442.24 219.68H442.48L442.56 219.6L442.72 219.68H442.96L443.04 219.76L443.2 219.68L443.44 219.44H443.52L443.84 219.36L444.24 219.52L444.56 219.68L444.8 219.84H444.96L445.12 219.76L445.28 219.52H445.36L446.48 220.64L447.36 223.36L447.6 226.48L447.28 228.96L446.16 230.72L444.96 232L444 233.52L443.76 236L444.48 238.4L445.84 240.32L447.52 241.6L449.36 242.16L452.16 241.84L452.24 242L452.32 241.84H452.72L456.16 240.32L456.88 239.76L457.04 239.92L457.28 240.08L457.44 240.32L457.68 240.08L458.08 240L458.64 240.08L459.12 240.16H459.36L460 240.08L460.48 240.16L460.8 240.24L461.2 240.32H461.52H461.68L461.84 240.08L462 239.92L462.32 239.68L462.64 239.44L462.96 239.36L463.28 239.2L463.6 239.12L463.92 238.8L464 238.56V237.68V236.96L464.08 236.72V236.56L464 236.4L464.24 236.24L464.48 236.08L464.72 236H465.04L465.28 236.08L465.68 236.24V236.16V235.92L465.76 235.44L465.92 235.28L466.08 234.8L466.32 234.56L466.56 234.4H466.64L466.72 234.16L466.8 233.92L466.88 233.76H466.96L467.2 233.68L467.52 233.76H467.84H468.08L468.4 233.84L468.56 233.76L468.72 233.6V233.36V232.96L468.8 232.64L470.4 232.24L470.88 232L471.2 232.08L471.6 232.16L471.92 232.32L472.16 232.4L472.48 232.16L472.96 232L473.44 231.6L474 231.04L474.24 230.64L474.48 230.4L475.12 230.24L475.36 230.56L475.52 230.72L475.92 230.8L476.32 231.28L476.8 231.76L477.12 232V232.16V232.56L476.96 233.12L477.2 233.52L477.36 233.92V234L477.28 234.4L477.2 234.56L477.6 235.12L478 235.68L478.24 235.92V236.16V236.4L478.08 236.72L477.76 236.96V237.12L477.68 237.44V237.76L477.92 238.24L478.08 238.56V238.88L478 239.04L478.08 239.28L478.4 239.84L478.72 240.24L478.8 240.64L478.88 240.96L479.12 241.2L479.36 241.52L479.6 241.76L479.92 241.84L480.16 242L480.4 242.48H480.56H480.8L481.2 242.32L481.28 242.24L481.52 242.4L485.52 243.04L486.32 243.52L487.68 244.56V244.64L487.84 244.96L487.92 245.28V245.6L488 245.68L488.16 245.52H488.48H488.88L489.2 245.44L489.36 245.52L489.6 245.6L489.68 245.76H489.76L490 246.4V247.36L490.24 248.48L490.56 249.2V249.52L490.64 250.32L490.72 250.88L490.96 251.44L491.04 251.84L491.2 252.16L491.76 252.48L491.92 252.64L491.68 254.56L491.6 258.08L491.28 259.2L490.64 260.16L489.36 260.96L486.16 262.24L483.92 263.52L482.96 264.32L482.4 265.2L482.16 266.64L482.24 268L482.4 268.96L482.16 270L481.44 271.28L476.16 276.48L473.28 279.76L472.16 282.96L471.92 285.6L471.52 286.8L471.44 288.4L471.76 290.08L472.88 292.88L473.92 294.64L476.56 297.6L473.92 299.76L472.24 302.48L470.96 303.84L468.32 306.24L466.64 307.2L465.12 307.76L460.48 308L459.04 308.24L456.48 309.04L455.2 310.08L454.08 311.36L452.96 312.4L451.44 313.04L450 313.44L449.28 314.08L448.72 315.28L448.08 316.48L447.52 316.96L447.04 317.12L446.72 316.88L445.84 316.24L445.28 316H444.64L440.4 317.44L439.2 317.68L437.76 317.76L436.4 317.52L434.72 317.68L433.84 318L433.2 318.64L432.16 320.16L431.52 320.88L431.12 321.44L430.48 322.96L429.76 323.92L428.88 324.48L427.68 324.96L427.2 325.6L426.96 326.64V329.84L426.64 330.96L425.84 331.6L425.04 331.84L422.16 331.76L420.88 332.08L420.16 332.64L418.72 334.32L418.32 335.2L417.92 336.32L417.68 337.12L417.28 337.36L416.8 337.04L415.68 335.12L414.72 334L413.52 333.2L412.16 332.8L410.56 333.04L408.96 333.92L406.56 335.52L405.04 336L404 336.08L403.36 335.76L402.8 335.12L401.04 332.64L398.48 330.8L397.6 329.52L397.12 327.84L396.88 325.52L396.32 323.68L395.28 322.32L394.08 321.52L392.96 321.28L391.52 321.44L388.24 322.32L384.16 322.56L381.36 321.68L380.56 320.48V319.04L381.44 317.2L381.84 315.84L381.92 314.48L381.84 313.2L382.24 310.72L381.84 309.04L378.88 303.6L378.48 302.48L378.4 301.44L378.56 300.32L378.64 298.96L378.08 298.24L376.88 297.84L374.96 298L373.04 298.4L368.48 300.4L365.36 302.8L364.32 303.12L362.88 303.28L359.92 303.04L357.12 303.44L356.24 303.36L355.84 302.8L354.88 299.92L353.68 298.32L352.56 298.08L351.28 298.56L349.84 299.28L346.08 300.56L344.64 301.52L339.52 306L337.84 306.96L335.36 308L335.04 308.48L335.44 309.2L338.24 311.28L339.28 312.56L339.68 314L339.52 315.52L337.84 318.32L336.8 319.52L333.76 322L332.4 323.36L331.68 324.8L331.28 326.32L330.72 327.36L329.76 328.56L325.12 332.56L324.64 330.72L324.16 328.72L323.76 327.6L323.52 327.12L323.2 326.64L322.8 326.16L318.96 323.28L318.48 322.72L318.24 322.32L317.76 321.92L317.12 321.68L311.6 322.24L307.28 322.08L306.32 322.24L305.6 322.56L305.12 322.88L302.56 325.36L299.92 328.56L299.52 328.96L299.12 328.64L298.88 327.6L299.2 324.72L299.76 322.08L299.84 320.48L299.2 318.72L297.76 317.92L295.36 316.56L293.28 314.32L292.08 312.64L288.8 309.44L288.08 308.48L287.28 307.68L285.92 306.88L284.24 306.4L282.96 306.48L281.52 307.2L277.12 308.88L276.64 309.2L275.76 309.92L270.16 315.84L266.72 322.08L266.16 322.64L265.28 323.12L263.6 323.6L262.8 323.52L262.24 323.2L261.92 322.72L261.6 322.24L260.96 321.28L260.56 320.88L260 320.64L259.36 320.48L258.08 320.32L257.44 320.56L256.88 321.04L248.4 333.76L247.52 335.2L243.36 339.12L240.88 340.64L238.64 342.16L238.32 342.64L237.52 343.44L237.2 343.76L235.44 344.8L234.96 345.2L234.08 346.72L233.68 347.2L233.2 347.6L232.8 348.08L232.24 349.12L230.56 350.96L228.72 352.64L227.52 354.08L226.48 354.88L225.84 355.2L224.88 355.44L223.2 355.28L222.16 355.36L221.28 354.96L220.72 354.4L220.24 353.12L220.4 352.32L220.72 351.76L221.68 350.88L222 350.4L222.16 349.84V349.2L221.2 348.64L220.32 348.24L212.72 347.92L212.4 345.76L212.32 345.44L212.08 344.8L211.44 343.92L211.04 343.44L210.56 342.96L209.84 342.4L209.12 342.16L208.4 342H207.84L207.44 342.08L203.12 344.08L190.4 344.88L184.16 347.2L182.24 348.24L181.84 348.72L181.52 349.2L180.32 351.76L179.84 352.48L179.12 353.44L178.48 353.92L177.84 354.16L174.32 355.04L173.36 354.88L171.84 352.48L171.28 352.16L170.4 351.92L169.52 352L168.8 352.16L168.24 352.4L167.76 352.8L166.72 354.4L166.24 354.96L165.52 355.44L164.24 356.08L163.36 356.24H162.64L159.44 355.68L156.08 354.64H155.2L154.48 354.88L152.8 356.4L151.36 358.16L151.04 358.8L150.8 359.44L150.88 360.08L152.08 364.08L152.24 365.28L152.4 367.2L152.32 368.64L152.16 370.08L151.92 370.8L151.68 371.52L147.68 378L146.24 381.04L146.08 381.68V382.32L146.4 382.72L146.96 383.04L148.4 383.44L148.88 383.84L149.04 384.4L148.64 386.56V389.28L148.4 391.52L148.16 392.32L147.68 392.72L144.8 394.08L143.52 395.84L142.64 398.24L141.12 403.68L140.64 404.4L140 404.8L138.24 405.28H137.68L137.2 405.12L136.88 404.72L136.64 404.16L136.24 403.76L135.84 403.44L134.16 403.92L127.04 405.04L124.72 404.8L123.36 403.68L122.4 402.56L119.92 400.64L119.84 400.56L120.88 399.84L121.6 398.32L122 396.56L122.72 394.48L123.84 392.24L127.44 386.64L129.76 380.08L131.28 373.2L130.88 368.56L128.64 364.96L121.2 358.32L116.4 355.6L114.8 354L111.36 347.68L107.68 344.16L106.8 342.48L106.48 340.72L106.32 336.96L105.76 335.12L103.52 331.68L102.8 330.08L102.56 327.44L102.88 320.64L102.64 318.16L101.44 313.76L101.2 311.52L101.92 309.76L104.24 308.08L104.72 307.36L104.8 306L104.4 304.88L103.84 303.84L103.6 302.64L103.92 300L104.96 299.36L106.56 299.44L108.8 298.96L110.32 298L111.76 296.8L112.96 295.12L113.76 293.12L113.84 290.48L112.96 288.08L112 286.64ZM172.32 323.44L172 321.6L171.36 319.84L170.4 318.16L169.76 316.32L168.96 315.52L168.64 316.4L168.48 318.08L168.88 320.32L168.32 321.68L165.92 322.88L163.84 323.52L163.52 324.64L164.4 326.72L162 328.48L162.56 329.12L164.64 328.24L165.28 329.6L164.64 331.04L165.6 332.48L165.44 334.24L165.68 336.8L167.44 338.08L169.2 337.92L170.96 337.52L171.12 336.32L170.96 334.32L173.52 332L176.32 330.88L176.88 329.28L178 327.6L176.4 327.2L175.84 325.68L174.16 325.28L173.2 324.8L173.36 323.36L172.32 323.44Z" fill="#2273FC" stroke="white" stroke-width="1.5" stroke-linejoin="round"/>
<path id="tursunzade" opacity="0.8" d="M119.383 343.104C124.906 343.104 129.383 338.627 129.383 333.104C129.383 327.582 124.906 323.104 119.383 323.104C113.861 323.104 109.383 327.582 109.383 333.104C109.383 338.627 113.861 343.104 119.383 343.104Z" fill="#FF0067" stroke="white" stroke-width="1.6"/>
<path id="vahdat" opacity="0.8" d="M192.481 337.069C198.004 337.069 202.481 332.592 202.481 327.069C202.481 321.546 198.004 317.069 192.481 317.069C186.958 317.069 182.481 321.546 182.481 327.069C182.481 332.592 186.958 337.069 192.481 337.069Z" fill="#FF0067" stroke="white" stroke-width="1.6"/>
<path id="rogun" opacity="0.8" d="M261.04 320.786C266.563 320.786 271.04 316.309 271.04 310.786C271.04 305.263 266.563 300.786 261.04 300.786C255.517 300.786 251.04 305.263 251.04 310.786C251.04 316.309 255.517 320.786 261.04 320.786Z" fill="#FF0067" stroke="white" stroke-width="1.6"/>
<path id="norak" opacity="0.8" d="M220.541 357.56C226.064 357.56 230.541 353.082 230.541 347.56C230.541 342.037 226.064 337.56 220.541 337.56C215.018 337.56 210.541 342.037 210.541 347.56C210.541 353.082 215.018 357.56 220.541 357.56Z" fill="#FF0067" stroke="white" stroke-width="1.6"/>
<path id="rudaki-district" opacity="0.8" d="M149.663 368.349C155.186 368.349 159.663 363.871 159.663 358.349C159.663 352.826 155.186 348.349 149.663 348.349C144.14 348.349 139.663 352.826 139.663 358.349C139.663 363.871 144.14 368.349 149.663 368.349Z" fill="#141DC2" stroke="white" stroke-width="1.6"/>
<path id="hisor-district" opacity="0.8" d="M149.225 341.3C154.748 341.3 159.225 336.823 159.225 331.3C159.225 325.777 154.748 321.3 149.225 321.3C143.702 321.3 139.225 325.777 139.225 331.3C139.225 336.823 143.702 341.3 149.225 341.3Z" fill="#141DC2" stroke="white" stroke-width="1.6"/>
<path id="rasht-district" opacity="0.8" d="M318.649 267.798C324.172 267.798 328.649 263.32 328.649 257.798C328.649 252.275 324.172 247.798 318.649 247.798C313.126 247.798 308.649 252.275 308.649 257.798C308.649 263.32 313.126 267.798 318.649 267.798Z" fill="#141DC2" stroke="white" stroke-width="1.6"/>
<path id="nurobod-district" opacity="0.8" d="M295.094 307.73C300.617 307.73 305.094 303.253 305.094 297.73C305.094 292.207 300.617 287.73 295.094 287.73C289.571 287.73 285.094 292.207 285.094 297.73C285.094 303.253 289.571 307.73 295.094 307.73Z" fill="#141DC2" stroke="white" stroke-width="1.6"/>
<path id="lahsh-district" opacity="0.8" d="M436.287 254.249C441.81 254.249 446.287 249.772 446.287 244.249C446.287 238.726 441.81 234.249 436.287 234.249C430.764 234.249 426.287 238.726 426.287 244.249C426.287 249.772 430.764 254.249 436.287 254.249Z" fill="#141DC2" stroke="white" stroke-width="1.6"/>
<path id="tajikobod-district" opacity="0.8" d="M364.001 280.209C369.524 280.209 374.001 275.732 374.001 270.209C374.001 264.686 369.524 260.209 364.001 260.209C358.478 260.209 354.001 264.686 354.001 270.209C354.001 275.732 358.478 280.209 364.001 280.209Z" fill="#141DC2" stroke="white" stroke-width="1.6"/>
<path id="sangvor-district" opacity="0.8" d="M406.127 309.724C411.65 309.724 416.127 305.247 416.127 299.724C416.127 294.201 411.65 289.724 406.127 289.724C400.604 289.724 396.127 294.201 396.127 299.724C396.127 305.247 400.604 309.724 406.127 309.724Z" fill="#141DC2" stroke="white" stroke-width="1.6"/>
<path id="shahrinav-district" opacity="0.8" d="M134.561 339.002C140.083 339.002 144.561 334.525 144.561 329.002C144.561 323.479 140.083 319.002 134.561 319.002C129.038 319.002 124.561 323.479 124.561 329.002C124.561 334.525 129.038 339.002 134.561 339.002Z" fill="#141DC2" stroke="white" stroke-width="1.6"/>
<path id="faizobod-district" opacity="0.8" d="M229.539 342.462C235.061 342.462 239.539 337.984 239.539 332.462C239.539 326.939 235.061 322.462 229.539 322.462C224.016 322.462 219.539 326.939 219.539 332.462C219.539 337.984 224.016 342.462 229.539 342.462Z" fill="#141DC2" stroke="white" stroke-width="1.6"/>
</g>
<g id="gorno-badahshan-group">
<path id="gorno-badahshan-region" d="M325.12 332.56L329.76 328.56L330.72 327.36L331.28 326.32L331.68 324.8L332.4 323.36L333.76 322L336.8 319.52L337.84 318.32L339.52 315.52L339.68 314L339.28 312.56L338.24 311.28L335.44 309.2L335.04 308.48L335.36 308L337.84 306.96L339.52 306L344.64 301.52L346.08 300.56L349.84 299.28L351.28 298.56L352.56 298.08L353.68 298.32L354.88 299.92L355.84 302.8L356.24 303.36L357.12 303.44L359.92 303.04L362.88 303.28L364.32 303.12L365.36 302.8L368.48 300.4L373.04 298.4L374.96 298L376.88 297.84L378.08 298.24L378.64 298.96L378.56 300.32L378.4 301.44L378.48 302.48L378.88 303.6L381.84 309.04L382.24 310.72L381.84 313.2L381.92 314.48L381.84 315.84L381.44 317.2L380.56 319.04V320.48L381.36 321.68L384.16 322.56L388.24 322.32L391.52 321.44L392.96 321.28L394.08 321.52L395.28 322.32L396.32 323.68L396.88 325.52L397.12 327.84L397.6 329.52L398.48 330.8L401.04 332.64L402.8 335.12L403.36 335.76L404 336.08L405.04 336L406.56 335.52L408.96 333.92L410.56 333.04L412.16 332.8L413.52 333.2L414.72 334L415.68 335.12L416.8 337.04L417.28 337.36L417.68 337.12L417.92 336.32L418.32 335.2L418.72 334.32L420.16 332.64L420.88 332.08L422.16 331.76L425.04 331.84L425.84 331.6L426.64 330.96L426.96 329.84V326.64L427.2 325.6L427.68 324.96L428.88 324.48L429.76 323.92L430.48 322.96L431.12 321.44L431.52 320.88L432.16 320.16L433.2 318.64L433.84 318L434.72 317.68L436.4 317.52L437.76 317.76L439.2 317.68L440.4 317.44L444.64 316H445.28L445.84 316.24L446.72 316.88L447.04 317.12L447.52 316.96L448.08 316.48L448.72 315.28L449.28 314.08L450 313.44L451.44 313.04L452.96 312.4L454.08 311.36L455.2 310.08L456.48 309.04L459.04 308.24L460.48 308L465.12 307.76L466.64 307.2L468.32 306.24L470.96 303.84L472.24 302.48L473.92 299.76L476.56 297.6L473.92 294.64L472.88 292.88L471.76 290.08L471.44 288.4L471.52 286.8L471.92 285.6L472.16 282.96L473.28 279.76L476.16 276.48L481.44 271.28L482.16 270L482.4 268.96L482.24 268L482.16 266.64L482.4 265.2L482.96 264.32L483.92 263.52L486.16 262.24L489.36 260.96L490.64 260.16L491.28 259.2L491.6 258.08L491.68 254.56L491.92 252.64L492.08 251.84L493.12 251.76L493.6 250.72L494.4 249.04L496.96 243.36L499.12 236.88L500.24 235.04L501.92 234.48L503.92 234.16L507.44 232.4L509.04 232.32L511.44 232.96L512.08 233.12L513.68 233.2L515.2 232.96L518.16 229.84L519.12 229.44L520.56 229.84L522.88 231.36H523.28H524.4L525.52 230.72L527.28 228.48L527.6 228.16L528.24 227.6L529.6 227.2L529.84 227.12L531.44 227.2L532.4 227.52L532.88 227.6L533.76 227.84L538.8 229.2L546.8 231.28L548.64 231.76H549.2L550.08 231.68L554.08 230.8L554.72 230.88L556 230.96L558.96 231.6L560.88 232L561.84 232.24L563.44 232.8L564.88 232.64L566.4 231.84L569.44 230.24L570.64 230L571.2 230.16L571.76 230.32L573.44 231.12L576.72 232.08L578.56 231.92L579.68 231.84L587.36 229.2L588.96 228.64L589.12 228.56L591.44 228.16L591.68 228.08L594.48 227.6L595.12 226.32L595.28 224.64L596 222.8L598.32 221.2L600.4 220.64L602.56 220.16L605.44 219.44L608.48 218.64L611.76 218.32L613.92 218.56L617.68 218.96L619.84 219.2H620L620.4 219.28L623.04 220.64L622.96 222.96L623.92 229.84L624.08 232.32L623.84 234L623.12 234.48L621.28 235.68L620.48 237.52L620.32 238L619.84 239.52L619.12 241.28L617.68 242.16L617.2 242.32L616.64 242.56L616 243.44L616.08 243.92L616.16 244.48V244.56L617.12 245.12L618.72 246.08L619.28 246L619.92 245.84L620.24 245.92L620.16 246.24L620.72 249.68L622.88 253.6L626.88 257.44L627.68 259.12L628.56 263.28L629.12 265.2L630.16 266.72L632.4 268.48L632.96 269.36L633.44 270.96L634.56 271.52L634.8 271.44L635.84 271.36L635.92 271.28L638.8 274.4L640.08 275.36L641.04 277.36L641.36 279.36L640.88 281.2L639.52 282.72L638 283.2L637.6 283.04L633.44 282.96L633.12 283.36H633.04L630.88 284.4L629.6 285.76L628.24 287.68L627.52 289.84L627.76 292L628.88 293.76L631.6 296.8L632.64 298.56L632.96 300.88L632.32 306.08L632.72 307.92L636 313.6L636.64 315.28L637.52 320.24L638.4 322.16L640.16 324.08L641.76 325.12L645.12 326.48L646.72 327.36L649.6 330L651.04 330.88L654.72 330.96L655.28 331.12H655.36L655.6 331.04L660 331.12L661.52 330.8L661.76 330.48L662.08 330.56L663.68 330.72L664.8 329.6L663.68 328V327.68L663.6 327.44L663.84 326.24L663.92 326.08L664.8 324.88V324.56L666.88 321.76L667.76 320.08V319.84V319.12L667.52 317.68L667.68 316.4L668.88 314.72L669.76 314.32H670L670.48 314.24L676.08 316.24L677.92 316.56L680 316.48L681.28 316.08L681.52 316.16L684.08 316.64L684.8 316.56L685.2 316.48L689.36 315.84L689.76 316H690.56L691.36 315.92L701.76 321.04L717.52 327.12L719.2 328.56L720.64 330.24L722.24 331.52L724.32 331.84L726.48 331.68L728.16 332L729.68 333.12L731.12 335.12H731.2L732 336.48L732.72 337.04L734.32 338L734.96 338.72L735.2 339.76L735.36 340.88L736 344.24V346.56L735.44 348.8L734.4 350.72L734 351.12H733.84L733.12 352.08L732.96 352.32L730.64 353.6L730.8 354.72L730.4 355.12L729.52 357.04L729.2 359.2V370.56L731.04 384.16L732.8 387.52L739.36 391.2L740.56 394.48L740.16 402L740.4 405.12L740.32 405.92L740.64 406.56L741.68 407.2L742.48 407.92L742.32 408.72L740.72 411.28L740 411.68L739.68 412.24L739.92 413.84L740.4 414.72L741.04 415.36L745.84 418L746.96 419.12L747.28 421.28L746.96 422.4L746.32 423.6L744.8 425.6L744.16 426.72L743.92 427.76L743.76 428.8L743.44 429.76L742.24 431.52L740.96 433.04L739.92 434.72L739.52 436.96L740.48 441.12L742.64 444.48L745.44 447.04L753.92 452L755.52 453.52L760.24 459.76L762.88 462.32L763.6 462.88L763.04 465.2L763.12 465.36L761.28 465.92L759.12 467.04L758 469.04L757.76 473.44L756.96 474.8L756.56 474.96L754.8 475.12H754.72H754.64L754.56 475.2L753.6 476L752.88 476.32L750.32 477.28H747.44L745.2 478.96L744.8 479.2L744.16 479.76L742.56 481.12L742.48 482.16V482.4L742.08 483.36L741.28 483.68L741.04 483.76L740.32 483.84L740.24 484V484.16L737.76 482.72L733.44 475.44L730.8 472.56L718.88 465.2L716.16 466.72L706.72 467.36H705.92L705.12 467.2L701.76 466.16L699.68 465.28L697.92 465.44L696.32 465.76L693.6 465.28H692.56L691.6 464.96L690.24 462.64L689.36 462.08L688.32 462.16L687.2 462.88L686.72 461.36L685.6 464.48L683.36 464.8L680.64 464.08L678.16 464.16L676.64 465.68L676.48 469.76L674.8 471.76L672.48 472.72L662.16 474.8L655.12 477.36L653.12 477.84L647.92 480.32L643.92 480.72L642 481.28L638.48 484.64L637.12 484.96L635.68 484.56L633.6 484.4L632.64 484.72L631.12 485.92L630.16 486L629.52 485.52L628.16 483.68L627.44 482.96L625.52 482.88L621.6 484.08L620.16 483.2L619.68 480.72L620.88 478.4L622.88 476.72L624.8 476L628.4 475.6L629.76 474.96L631.36 473.6L632.96 471.76L633.52 470.08L633.6 465.12L633.68 464.16L634.32 461.2L630.96 460.8L626.88 460.88L620.4 459.12L609.28 455.04L605.12 455.12L599.28 458.32L597.76 457.92L596.16 456.96L594 456.64L591.68 456.88L589.76 457.52L588.32 458.64L583.76 463.52L582.72 464L580.72 463.28L579.92 463.52L576.32 466.32L574.88 468.16L573.28 471.6L572.16 473.2L570.32 474.48L563.6 475.12L556.96 479.2L554.88 481.68L552.56 482.48L548.24 483.28L544.48 485.6L541.68 489.44L537.36 498.48L533.52 504.64L532.88 506.88L532.08 508L518.16 510.08L515.04 511.68L508.64 510.48L504.4 511.36L494.96 515.2L491.28 517.68L490.4 518.72L489.04 520.8L488.16 521.68L484.96 523.52L482.56 526.24L455.52 546.4L451.84 547.92L447.28 548.8H442.72L438.4 547.84L434.48 545.76L431.36 542.48L430.08 540.4L429.04 538.24L428.32 535.84L427.68 530.48L426.8 528.16L421.44 519.52L420.64 517.44L420.4 514.88V510.08L420.08 508.72L418.4 506.24L417.84 504.96L417.68 503.52L417.84 496.48L418.64 491.68L419.12 489.92L419.76 488.8L419.44 486L422.88 480.08L422.96 476.8L423.52 475.36L423.76 472.88L423.6 467.92L422.88 463.44L423.2 461.76L424.24 459.12L425.12 454.4L423.84 444.96L424.24 439.76L424.56 439.12L425.68 437.6L426.16 436.56L426.4 435.36L426.88 431.76L427.92 428.08L428.08 426.88L427.84 425.6L427.04 423.12L426.88 422L427.6 419.92L431.04 417.68L432.56 415.6L432.88 413.44L432.96 410.64L432.8 408.08L432.56 406.64L433.2 405.84L430.4 402.32L427.6 400.4L424.24 400.16L412.8 404.08L411.12 405.36L409.28 406.4L407.28 405.52L403.76 402.64L402.8 402.56L402.08 402.72L401.6 402.48L401.2 400.96L401.36 399.68L402.24 397.04L402.88 394L405.68 388.8L406.96 383.92L408.64 380.56L409.28 377.12L410.96 372L411.44 369.28L410.88 364L408.64 360.48L405.44 358.4L397.76 355.12L392 349.12L388.4 346.48L385.84 345.12L384.64 344.88H383.52L382.8 345.28H382.08L381.12 344.48L380.56 343.52L379.76 341.36L379.2 340.4L378.24 339.36L377.28 338.48L376.24 337.84L375.04 337.52L372.88 337.6L372.16 338.48L372.48 341.2L371.52 342.4L369.28 341.84L365.44 340L364.32 340.16L363.84 340.64L363.44 341.2L362.8 341.52H362L360.48 340.96L359.68 340.8H356.72L355.2 341.12L354.56 342L353.36 344L347.92 344.56L346.24 345.68V346.48L348.08 347.92L347.28 349.28L344 351.76L343.12 352.24L341.04 352.16L340.16 352.64L339.76 353.68V354.88L339.84 356.08V357.12L338.56 361.2L337.68 361.68L336.4 362L335.28 362.64L334.4 365.6L331.6 370.96L329.2 377.52L328.08 379.52L327.12 380.48L323.92 381.84L322.96 382.56L318.8 386.88L314.64 392.48L313.84 393.04L312.08 394H312L310.48 391.92L309.84 390.96L309.76 389.6L310.72 387.12L314.64 380.16L315.84 376.72L316 375.28L316.08 368.72L315.84 365.28L315.6 363.36V362.56L315.68 361.52L316.4 358.64L317.44 355.92L317.68 354.96V353.84L317.36 351.84L316.96 350.8L316.64 350L316 349.04L315.76 348.16V346.8L316.08 344.16L317.36 341.28L323.76 335.84L324.8 334.24L325.12 332.56Z" fill="#2273FC" stroke="white" stroke-width="1.5" stroke-linejoin="round"/>
<path id="horog" opacity="0.8" d="M429.132 463.633C434.655 463.633 439.132 459.156 439.132 453.633C439.132 448.11 434.655 443.633 429.132 443.633C423.609 443.633 419.132 448.11 419.132 453.633C419.132 459.156 423.609 463.633 429.132 463.633Z" fill="#FF0067" stroke="white" stroke-width="1.6"/>
<path id="shugnon-district" opacity="0.8" d="M483.172 440.81C488.694 440.81 493.172 436.333 493.172 430.81C493.172 425.287 488.694 420.81 483.172 420.81C477.649 420.81 473.172 425.287 473.172 430.81C473.172 436.333 477.649 440.81 483.172 440.81Z" fill="#141DC2" stroke="white" stroke-width="1.6"/>
<path id="rushon-district" opacity="0.8" d="M481.486 401.278C487.009 401.278 491.486 396.801 491.486 391.278C491.486 385.755 487.009 381.278 481.486 381.278C475.963 381.278 471.486 385.755 471.486 391.278C471.486 396.801 475.963 401.278 481.486 401.278Z" fill="#141DC2" stroke="white" stroke-width="1.6"/>
</g>
<g id="leninabad-group">
<path id="leninabad-region" d="M336.96 28.8L339.52 29.92L341.68 31.84L343.04 34L344.24 36.96L344.4 39.12L342.48 38.64L340.96 37.12L338.24 33.44L336.64 31.84L336.56 31.76L335.52 29.2L336.96 28.8ZM345.36 215.04L342 217.6L340.48 218.48L340.08 218.96L339.76 219.52L339.28 220.88L338.96 221.44L338.16 221.92L336.88 222.32L331.76 223.04L331.28 223.28L331.04 223.76L330.4 225.28L330 225.76L329.44 226.24L328.32 226.32L318.56 229.2L314.8 229.36L313.92 229.12L313.44 228.8L312.64 227.92L312.16 227.6L311.52 227.52L310.88 227.6L310.16 228L309.44 228.88L308.8 230.4L308.48 230.88L308 231.28L298.08 236.08L296.24 237.52L295.84 237.76H295.36L295.12 237.12L295.04 236.48L294.96 235.04L294.88 234.4L294.56 233.92L294.08 233.52H293.04L291.6 233.76L289.04 234.72L287.92 235.52L287.12 236.24L286.8 236.72L286.24 236.96H285.68L284.88 236.4L284.56 235.76L284.24 234.8L283.28 234.72L273.84 236L273.12 236.24L272.32 236.88L271.84 237.52L270.88 239.28L269.84 240.8L268.96 241.6L268 242.24L266.96 242.72L266.32 242.88L265.52 242.96L264.16 242.56L263.44 242.16L262.88 241.68L262.24 240.72L261.52 239.12L260.48 239.2L259.6 239.36L253.12 243.12L253.44 244.32L254 244.96L255.2 246.24L255.44 246.88L255.68 247.84L255.2 252.8L254.8 254.16L254.48 255.04L253.92 255.84L253.52 256.4L251.44 258.24L251.36 259.12L251.44 259.6L251.52 260.24L251.68 260.8L251.28 261.44L250.16 262.08L246.96 263.04L245.6 263.68L244.72 264.32L243.92 265.28L243.52 265.68L243.04 265.92H242.56L242 265.44L241.68 264.96L241.6 264.32L241.68 263.6L242.24 261.44L242.32 260L242.24 258.64L242 257.36L241.6 256.32L240.88 255.36L237.6 252.32L237.28 252.08H236.24L229.28 253.04L228.48 252.96L227.68 253.12L226.8 253.52L225.52 254.64L224.96 255.52L224.64 256.48L224.56 257.2L224.32 261.6L224 262.24L223.28 262.72L221.76 262.8L212.72 262.48L211.12 262.96L208.96 263.92L202.16 267.68L200.96 268.64L200.56 269.12L199.92 269.68L197.04 270.96L194.08 270.32L191.76 269.84L191.44 269.6L190 269.28L189.44 268.96L183.6 267.44L178.32 266.96L172.64 267.36L171.6 267.12L170.88 266.72L170.64 266.16L170.4 265.68L169.92 265.36L168.64 265.52L159.76 268.96L153.44 268.64L152.72 268.88L152.08 269.36L151.52 270.8L150.72 274.08L150.56 274.56V274.64L147.6 276.72L146.24 279.36L145.2 280.48L141.92 281.84L140.08 282.32L137.44 282.16L134.08 283.52L133.44 283.84L132.56 284.16L132 284.24L131.2 284L129.36 283.12L128.72 282.88L127.52 282.96L126 283.28L120.8 285.44L119.12 285.92L114.48 286L112 286.64L110.24 284.08L107.12 277.12L105.68 275.36H105.6L104.88 275.12L104.08 275.04L103.36 275.12L102.64 275.36L101.04 276.48L99.52 277.04L98 276.72L96.56 275.36L95.84 274.96L94.24 274.4H92.88L91.6 274.72L90.32 275.36L83.2 277.76L80.72 277.84L68.8 275.84L67.2 274.24L67.12 274.16L66.64 271.2L67.68 261.92L67.52 260.24L66.64 258.8L66.08 258.56L64.48 258.96L63.84 258.8L63.36 258.24L62.64 256.88L62.24 256.4L58.56 254.96L50.96 254.64L39.68 250.64L37.04 248.16L36.4 243.44L36.56 241.68L36.72 240.88L37.12 240.32L37.84 239.68L38 239.52L39.04 239.2L39.84 239.44L40.48 239.2L41.2 235.2L42.4 231.2L42.48 226.72L43.12 221.84L44.24 217.2L45.12 216.08L46.56 215.92L48.96 216.24L49.36 216.16L49.84 215.92L50.24 215.6L50.56 215.12L49.92 209.76L51.76 208L59.2 206.8L67.84 200.56L71.36 199.44L75.68 199.52L107.6 207.84L121.52 208.24L129.12 211.04L133.76 211.36L138.32 210.88L144.08 209.36L145.92 208.56V208.48L145.28 206.96L144.96 206.24L146.16 204.4L150.16 201.84L152.4 199.52L153.68 197.12L154.16 194.16L155.12 174.64L156.08 172L157.12 172.08L157.36 172.24L158.4 172.64L161.6 169.76L163.12 170.96L165.6 175.04L166.8 175.68L167.44 174.88L167.68 173.68V173.04V172.88L168.32 171.04L168.64 170.88L169.6 170.72L170 170.48L171.12 168.16V166.4L169.04 161.92L168.16 159.36L167.84 157.04L168.48 156.08L170.4 157.44L172.32 161.6L173.68 166.88L175.84 170.16L179.84 168.56L179.52 165.84L171.28 154.48L170.8 153.28L170.72 152.08L170.88 149.6L170.56 148.64L168.88 147.36L168.72 146.24L169.92 144L171.36 145.2L173.52 148.96L174.72 148.64L178 145.68L179.92 145.12L186.72 146.16L188.8 145.84L189.6 144.32L189.76 142.56L189.44 140.72L188.8 138.96L184.48 135.84L162.64 140.08L161.76 140.32L158.48 139.04L154.24 136.4L151.84 133.68L153.84 132.32L157.6 131.36L162.8 130L164.88 129.76L170.24 130.72L172.48 130.4L175.68 128.56L177.52 127.76L192.72 125.44L194.88 125.76L197.84 127.28L201.04 128.88L209.36 131.44L214 131.6L217.52 130V127.04L210.72 120.96L210.4 117.36L212.8 117.04L216.4 118.4L219.44 117.92L220.08 111.92L219.52 109.2L218.48 106.88L216.08 102.48L215.2 100.24L213.2 93.36H213.12L209.44 87.04V84.48L212.8 82.16L218.48 81.68L219.76 80.88L220.16 79.2L219.52 72.64L219.6 68.16L220.24 64.48L221.68 61.28L224.08 58.16L225.36 57.04L226.88 56.24L229.92 55.2L231.6 55.44L232.8 56.4L234 57.68L235.44 58.56L238.4 58.88L240.56 60.88L244.16 66.56L245.28 67.52L247.6 69.04L248.64 70.32L250.4 73.2L251.36 74.56L252.48 75.6L255.36 76.64L257.84 75.92L260.08 73.92L264 68.96L265.84 67.36L267.92 66.32L285.12 60.96L293.92 54.08L303.6 50.24L310.32 46.16L315.52 40.08L318.08 27.04L321.6 26.16L325.76 27.84L326.96 29.12L328.72 31.12L328.96 31.52L329.28 31.84L332.16 34.48L349.2 53.76L350 54.8L349.76 57.12L347.92 56.4L344.72 53.6L342.88 53.84L342 55.36L342.16 57.52L343.68 59.36L352.16 61.36L355.76 63.44L354.96 67.6L354.72 68.64L353.28 69.6L352.96 70.08L352.8 70.64L352.48 71.12L350.96 71.52L350.16 71.84L348.8 72.96L347.44 74.24L341.76 78.88L338.48 82.96L337.28 84L335.92 84.64L334.48 85.04L333.2 85.6L331.92 86.88L329.68 90.72L328.8 92L327.84 92.32L321.44 93.84L318.72 95.6L317.2 98L317.36 100.56L317.52 101.2L317.68 101.52L318.88 103.28L319.04 103.44L319.84 104.4L320.08 104.96L318.88 109.2L323.52 111.28L325.44 111.84L327.52 111.68L329.28 111.12L331.04 110.88L333.12 111.76L335.52 115.84L336.8 121.52L338.48 126.72L342.24 129.44L346.16 129.68L350.16 129.36L363.44 125.2L371.76 124.48L373.68 124.64L375.2 127.12L375.6 127.6L374 130.64L370.88 132.96L368 133.92L364.64 133.12L363.04 132.8L361.76 133.2L361.6 133.44L361.12 133.76L359.44 134.72L359.36 134.48L359.2 134.4L359.04 134.24L358.64 134L358.08 134.08L357.76 134.32L357.2 135.12L353.52 138.24L352.24 139.04L346.72 140.88L346.32 141.04L344 143.28L343.84 143.36L343.44 146.48L343.52 149.76V150.24L343.28 151.52L342.72 154.48L341.92 155.84L341.68 156.24L341.44 156.72L339.84 158.4L338 159.52L336 160.24L332 160.4L331.28 160.8L330.96 160.96L330.56 161.6L330.32 162.08L329.52 164.72L328.72 165.76L326.72 165.04L326 163.44L326.24 161.36L327.12 159.04L328.32 157.36L329.76 156.32L331.28 155.52L332.8 154.48L334.16 151.76L333.2 149.6L331.04 148.16L328.72 147.36L321.28 146.24L317.76 144.72L314.48 144.32L312.8 143.44L311.28 141.76L310.08 140.08L308.8 138.56L308.64 138.48L306.72 137.52L304.56 137.36L303.2 137.44L299.92 137.68L297.92 137.04L284.64 128.24L281.36 127.92L256.96 136.72L250.32 139.04L247.2 140.16L244.88 141.04L244.64 141.12L243.68 141.28L243.04 141.36L241.6 141.2L240.96 140.56L240 138.72L239.28 138.48L238.8 139.04L238.4 141.12L238.16 141.92L236.24 144.72L234.72 147.52L234.16 150.64L234.88 154.48L235.28 155.2L235.44 156L235.52 156.8L235.44 157.6L237.28 160.96L237.6 161.52V161.68V161.84L237.68 162.08V162.32V163.2L228.72 166.4L224.24 158.64L223.12 157.44L221.52 155.6L220.24 155.36L219.92 155.6L219.84 156.32L219.44 157.52L217.68 161.52L213.36 174.56L212.32 179.2L212.08 184L212.72 186.24L214.08 187.84L215.76 189.2L217.04 190.88L217.76 192.88L218.08 195.2L217.6 209.6L218.96 212.48L222.64 210.96L223.2 210.08V210L223.44 209.2L223.76 208.4L224.64 208L225.2 208.32L226.64 209.92L227.44 210.72L229.36 211.36L232.64 210.8H232.8L233.36 210.72H235.44L235.68 210.64L236.72 210.56L237.2 210.48L238.88 209.84L240.4 208.88H240.48L243.6 206.16L245.28 205.52H245.44L253.36 204.96L257.2 205.44L260.88 206.64L264.8 208.88L268.4 210L270.64 209.52L273.52 208.96L275.6 208.56L279.44 208.96L282.24 210.24L283.04 209.6L283.36 209.12L284.48 207.52L286.08 206.08L288 205.52H290L290.96 205.76L291.92 205.92L295.04 207.76L296.56 208.32L298.08 207.84L298.48 207.2L298.88 206.64L301.44 201.04L302.88 199.92L303.84 201.12L304.24 203.36V205.04V205.44L303.28 209.76L303.44 211.44L305.04 212.08L306.72 211.68L308.48 210.4L315.04 205.52L316.24 205.12L317.2 205.2L317.44 205.28L319.12 205.84H320.08L320.64 205.44L321.12 204.8L321.36 204.48L321.68 204.16L322.56 203.84L324.08 203.52L324.4 203.36L326.08 202.72L327.12 202.32L328.72 202.16L328.96 202.24L330 202.64L332.08 204.56L333.28 205.28L334.88 205.44L338.32 204.8L340 204.96L342.24 206.72L343.52 209.28L345.36 215.04ZM333.2 168.96L342 171.92L345.28 172L348.24 170.64L349.36 170.96L350.08 173.2V173.84L349.92 175.36L348.96 176.24L345.92 176.88L344.4 177.6L343.28 178.24L340 180.8L338.48 182.08L337.92 181.68L335.28 177.12L334.32 175.92L331.2 173.76L329.92 171.92L329.2 169.92L329.36 168.08H330.72L331.28 168.32L331.6 168.4L333.2 168.96Z" fill="#2273FC" stroke="white" stroke-width="1.5" stroke-linejoin="round"/>
<path id="hudzhand" opacity="0.8" d="M249.839 129.647C255.361 129.647 259.839 125.17 259.839 119.647C259.839 114.125 255.361 109.647 249.839 109.647C244.316 109.647 239.839 114.125 239.839 119.647C239.839 125.17 244.316 129.647 249.839 129.647Z" fill="#FF0067" stroke="white" stroke-width="1.6"/>
<path id="konibodom" opacity="0.8" d="M323.962 128.385C329.485 128.385 333.962 123.907 333.962 118.385C333.962 112.862 329.485 108.385 323.962 108.385C318.439 108.385 313.962 112.862 313.962 118.385C313.962 123.907 318.439 128.385 323.962 128.385Z" fill="#FF0067" stroke="white" stroke-width="1.6"/>
<path id="panzhakent" opacity="0.8" d="M61.0909 224.817C66.6137 224.817 71.0909 220.34 71.0909 214.817C71.0909 209.295 66.6137 204.817 61.0909 204.817C55.568 204.817 51.0909 209.295 51.0909 214.817C51.0909 220.34 55.568 224.817 61.0909 224.817Z" fill="#FF0067" stroke="white" stroke-width="1.6"/>
<path id="istaravshan" opacity="0.8" d="M191.336 174.509C196.859 174.509 201.336 170.032 201.336 164.509C201.336 158.987 196.859 154.509 191.336 154.509C185.814 154.509 181.336 158.987 181.336 164.509C181.336 170.032 185.814 174.509 191.336 174.509Z" fill="#FF0067" stroke="white" stroke-width="1.6"/>
<path id="isfara" opacity="0.8" d="M342.442 148.356C347.965 148.356 352.442 143.879 352.442 138.356C352.442 132.834 347.965 128.356 342.442 128.356C336.92 128.356 332.442 132.834 332.442 138.356C332.442 143.879 336.92 148.356 342.442 148.356Z" fill="#FF0067" stroke="white" stroke-width="1.6"/>
<path id="guliston" opacity="0.8" d="M160.316 146.408C165.839 146.408 170.316 141.931 170.316 136.408C170.316 130.885 165.839 126.408 160.316 126.408C154.793 126.408 150.316 130.885 150.316 136.408C150.316 141.931 154.793 146.408 160.316 146.408Z" fill="#FF0067" stroke="white" stroke-width="1.6"/>
<path id="buston" opacity="0.8" d="M222.103 99.8021C227.626 99.8021 232.103 95.3249 232.103 89.8021C232.103 84.2792 227.626 79.8021 222.103 79.8021C216.58 79.8021 212.103 84.2792 212.103 89.8021C212.103 95.3249 216.58 99.8021 222.103 99.8021Z" fill="#FF0067" stroke="white" stroke-width="1.6"/>
<path id="zafarabad-district" opacity="0.8" d="M182.423 141.517C187.946 141.517 192.423 137.04 192.423 131.517C192.423 125.995 187.946 121.517 182.423 121.517C176.9 121.517 172.423 125.995 172.423 131.517C172.423 137.04 176.9 141.517 182.423 141.517Z" fill="#141DC2" stroke="white" stroke-width="1.6"/>
<path id="jabbor-rasulov-district" opacity="0.8" d="M238.198 147.643C243.721 147.643 248.198 143.165 248.198 137.643C248.198 132.12 243.721 127.643 238.198 127.643C232.675 127.643 228.198 132.12 228.198 137.643C228.198 143.165 232.675 147.643 238.198 147.643Z" fill="#141DC2" stroke="white" stroke-width="1.6"/>
<path id="gaffurov-district" opacity="0.8" d="M257.757 110.057C263.28 110.057 267.757 105.58 267.757 100.057C267.757 94.5343 263.28 90.0571 257.757 90.0571C252.234 90.0571 247.757 94.5343 247.757 100.057C247.757 105.58 252.234 110.057 257.757 110.057Z" fill="#141DC2" stroke="white" stroke-width="1.6"/>
<path id="ayni-district" opacity="0.8" d="M164.564 255.034C170.087 255.034 174.564 250.557 174.564 245.034C174.564 239.511 170.087 235.034 164.564 235.034C159.042 235.034 154.564 239.511 154.564 245.034C154.564 250.557 159.042 255.034 164.564 255.034Z" fill="#141DC2" stroke="white" stroke-width="1.6"/>
<path id="devastich-district" opacity="0.8" d="M206.057 198.193C211.58 198.193 216.057 193.716 216.057 188.193C216.057 182.67 211.58 178.193 206.057 178.193C200.534 178.193 196.057 182.67 196.057 188.193C196.057 193.716 200.534 198.193 206.057 198.193Z" fill="#141DC2" stroke="white" stroke-width="1.6"/>
<path id="spitamen-district" opacity="0.8" d="M225.381 152.816C230.904 152.816 235.381 148.339 235.381 142.816C235.381 137.293 230.904 132.816 225.381 132.816C219.858 132.816 215.381 137.293 215.381 142.816C215.381 148.339 219.858 152.816 225.381 152.816Z" fill="#141DC2" stroke="white" stroke-width="1.6"/>
<path id="shahristan-district" opacity="0.8" d="M169.907 199.664C175.43 199.664 179.907 195.187 179.907 189.664C179.907 184.141 175.43 179.664 169.907 179.664C164.385 179.664 159.907 184.141 159.907 189.664C159.907 195.187 164.385 199.664 169.907 199.664Z" fill="#141DC2" stroke="white" stroke-width="1.6"/>
</g>
<g id="dushanbe-group">
<path id="dushanbe-region" d="M172.32 323.44L173.36 323.36L173.2 324.8L174.16 325.28L175.84 325.68L176.4 327.2L178 327.6L176.88 329.28L176.32 330.88L173.52 332L170.96 334.32L171.12 336.32L170.96 337.52L169.2 337.92L167.44 338.08L165.68 336.8L165.44 334.24L165.6 332.48L164.64 331.04L165.28 329.6L164.64 328.24L162.56 329.12L162 328.48L164.4 326.72L163.52 324.64L163.84 323.52L165.92 322.88L168.32 321.68L168.88 320.32L168.48 318.08L168.64 316.4L168.96 315.52L169.76 316.32L170.4 318.16L171.36 319.84L172 321.6L172.32 323.44Z" fill="#2273FC" stroke="white" stroke-width="1.5" stroke-linejoin="round"/>
<path id="dushanbe" opacity="0.8" d="M170.383 335.301C175.906 335.301 180.383 330.823 180.383 325.301C180.383 319.778 175.906 315.301 170.383 315.301C164.86 315.301 160.383 319.778 160.383 325.301C160.383 330.823 164.86 335.301 170.383 335.301Z" fill="#FF0067" stroke="white" stroke-width="1.6"/>
</g>
</g>
<defs>
<clipPath id="clip0_58_328">
<rect width="763.6" height="548.8" fill="white"/>
</clipPath>
</defs>
</svg>
